<svg width="48" height="48" viewBox="0 0 48 48" fill="none" xmlns="http://www.w3.org/2000/svg">
<g clip-path="url(#clip0_5_225)">
<path fill-rule="evenodd" clip-rule="evenodd" d="M0 47C0 47.5523 0.447715 48 1 48H47C47.5523 48 48 47.5523 48 47C48 46.4477 47.5523 46 47 46H46V14C46 12.8954 45.1046 12 44 12H20C18.8954 12 18 12.8954 18 14V23C18 23.5523 18.4477 24 19 24H32C33.1046 24 34 24.8954 34 26V46H32V27C32 26.4477 31.5523 26 31 26H13C12.4477 26 12 26.4477 12 27V46H10V26C10 24.8954 10.8954 24 12 24H15C15.5523 24 16 23.5523 16 23V2C16 0.895431 15.1046 0 14 0H4C2.89543 0 2 0.895431 2 2V46H1C0.447715 46 0 46.4477 0 47Z" 
fill="white"/>
</g>
<defs>
<clipPath id="clip0_5_225">
<rect width="48" height="48" fill="white"/>
</clipPath>
</defs>
</svg>
